<svg width="116" height="70" viewBox="0 0 116 70" fill="none" xmlns="http://www.w3.org/2000/svg">
<path d="M27.614 9.282C27.3847 11.6327 26.84 13.9833 25.98 16.334C25.12 18.6847 24.1453 21.0353 23.056 23.386C21.9667 25.7367 20.8773 28.0873 19.788 30.438C18.756 32.7887 17.9533 35.1107 17.38 37.404C17.208 37.576 16.9213 38.2067 16.52 39.296C16.1187 40.3853 15.66 41.618 15.144 42.994C14.6853 44.3127 14.2267 45.6027 13.768 46.864C13.3093 48.1253 12.9653 48.9853 12.736 49.444C13.1373 47.4373 13.682 45.488 14.37 43.596C15.1153 41.6467 15.8607 39.726 16.606 37.834C17.4087 35.942 18.1827 34.05 18.928 32.158C19.7307 30.266 20.39 28.3167 20.906 26.31L21.164 25.966C21.336 25.1633 21.594 24.418 21.938 23.73C22.3393 22.9847 22.6547 22.2107 22.884 21.408L23.486 20.548C23.4287 20.376 23.486 20.032 23.658 19.516C23.83 19 24.0307 18.4267 24.26 17.796C24.4893 17.108 24.69 16.4773 24.862 15.904C25.0913 15.3307 25.2347 14.9007 25.292 14.614C23.8587 17.4807 22.54 20.4047 21.336 23.386C20.132 26.3673 18.9567 29.3487 17.81 32.33C17.0073 34.2793 16.2047 36.286 15.402 38.35C14.6567 40.3567 14.0833 42.392 13.682 44.456C13.3953 44.9147 13.0513 45.746 12.65 46.95C12.306 48.154 11.9333 49.4727 11.532 50.906C11.1307 52.282 10.7867 53.6007 10.5 54.862C10.2707 56.1233 10.156 57.012 10.156 57.528V58.302H10.242L8.69401 63.72L8.60801 63.462C8.72268 62.0287 9.00934 60.71 9.46801 59.506L9.29601 59.334C9.18134 59.4487 9.06668 59.7353 8.95201 60.194C8.83734 60.5953 8.72268 61.054 8.60801 61.57C8.55067 62.0287 8.46467 62.4873 8.35001 62.946C8.23534 63.4047 8.14934 63.7487 8.09201 63.978C8.03468 63.7487 7.97734 63.4907 7.92001 63.204C7.86267 62.9173 7.86267 62.6593 7.92001 62.43C7.97734 62.0287 8.03468 61.6273 8.09201 61.226C8.20668 60.7673 8.26401 60.3373 8.26401 59.936V58.99L8.00601 59.334C7.94867 59.6207 7.83401 59.9073 7.66201 60.194C7.54734 60.4807 7.46134 60.7673 7.40401 61.054L7.57601 61.14C7.57601 61.2547 7.57601 61.3407 7.57601 61.398C7.63334 61.4553 7.66201 61.5127 7.66201 61.57C7.66201 61.742 7.63334 61.8853 7.57601 62C7.57601 62.172 7.57601 62.344 7.57601 62.516L7.31801 62.86L7.23201 63.204L6.71601 63.892L6.02801 63.806V62.43C6.02801 61.2833 6.08534 60.1653 6.20001 59.076C6.37201 57.9293 6.45801 56.7827 6.45801 55.636V55.206C6.17134 56.8113 5.97067 58.4167 5.85601 60.022C5.74134 61.6273 5.51201 63.2327 5.16801 64.838L4.39401 65.096L4.22201 64.924C4.10734 64.6373 3.96401 64.322 3.79201 63.978C3.62001 63.634 3.53401 63.29 3.53401 62.946L3.44801 63.032V63.806L3.19001 64.408C2.78867 64.0067 2.44467 63.462 2.15801 62.774C1.87134 62.1433 1.61334 61.4553 1.38401 60.71C1.21201 59.9647 1.06867 59.2193 0.954008 58.474C0.839342 57.7287 0.782008 57.098 0.782008 56.582C0.782008 55.9513 0.782008 55.3207 0.782008 54.69C0.839341 54.002 0.982675 53.3713 1.21201 52.798C1.15467 52.3393 1.24067 51.336 1.47001 49.788C1.75667 48.1827 2.07201 46.4913 2.41601 44.714C2.81734 42.9367 3.21867 41.274 3.62001 39.726C4.07867 38.178 4.45134 37.2033 4.73801 36.802C4.73801 36.4007 4.91001 35.684 5.25401 34.652C5.59801 33.62 6.05667 32.4447 6.63001 31.126C7.20334 29.8073 7.80534 28.4027 8.43601 26.912C9.12401 25.4213 9.78334 23.988 10.414 22.612C11.0447 21.236 11.618 20.0033 12.134 18.914C12.65 17.7673 13.0513 16.9073 13.338 16.334L12.736 16.076L11.962 16.248C11.9047 16.3053 11.8187 16.334 11.704 16.334C11.4747 16.334 11.274 16.248 11.102 16.076H11.016L11.102 16.162L10.672 16.506C10.156 16.506 9.61134 16.5347 9.03801 16.592C8.52201 16.592 8.00601 16.592 7.49001 16.592C7.20334 16.592 6.74467 16.592 6.11401 16.592C5.54068 16.5347 4.91001 16.4773 4.22201 16.42C3.59134 16.3053 3.01801 16.162 2.50201 15.99C2.04334 15.7607 1.78534 15.474 1.72801 15.13L1.04001 14.614L1.38401 13.84C3.96401 12.4067 6.65868 11.2313 9.46801 10.314C12.2773 9.39666 15.058 8.36466 17.81 7.218C18.7847 6.81666 19.6733 6.32933 20.476 5.756C21.336 5.18266 22.2533 4.75266 23.228 4.466L23.83 4.982C23.83 5.03933 23.8013 5.154 23.744 5.326C23.744 5.498 23.8013 5.584 23.916 5.584C24.088 5.584 24.26 5.498 24.432 5.326C24.604 5.154 24.8333 5.06799 25.12 5.06799C25.3493 5.06799 25.464 5.18266 25.464 5.412C25.5213 5.64133 25.55 5.81333 25.55 5.928C25.55 6.1 25.464 6.272 25.292 6.444H25.378C25.4927 6.32933 25.6073 6.21467 25.722 6.1C25.894 5.928 26.0373 5.842 26.152 5.842C26.3813 5.842 26.582 6.014 26.754 6.358C26.9833 6.64467 27.1553 6.874 27.27 7.04599V7.476C27.27 8.27867 27.1553 8.99533 26.926 9.626C26.6967 10.2567 26.5533 10.9447 26.496 11.69L26.582 11.776C26.6967 11.3747 26.84 10.9733 27.012 10.572C27.184 10.1133 27.3847 9.68333 27.614 9.282ZM3.19001 59.678C3.53401 57.3847 3.87801 55.12 4.22201 52.884C4.56601 50.5907 4.96734 48.2973 5.42601 46.004C5.71268 44.3413 6.14268 42.736 6.71601 41.188C7.34668 39.64 7.86268 38.0347 8.26401 36.372C8.72268 34.5373 9.41068 32.7887 10.328 31.126C11.3027 29.406 11.9907 27.6287 12.392 25.794C13.0227 25.0487 13.4813 24.2173 13.768 23.3C14.0547 22.3827 14.3413 21.4653 14.628 20.548L14.972 20.204C15.2587 19.4013 15.6027 18.656 16.004 17.968C16.4627 17.2227 16.7493 16.4487 16.864 15.646L16.778 15.388C15.1727 18.1973 13.6533 21.064 12.22 23.988C10.844 26.8547 9.64001 29.836 8.60801 32.932C7.97734 34.7093 7.34668 36.4007 6.71601 38.006C6.08534 39.6113 5.59801 41.3313 5.25401 43.166L4.91001 42.908C5.02467 43.3667 4.99601 44.284 4.82401 45.66C4.65201 47.036 4.42268 48.5553 4.13601 50.218C3.90667 51.8233 3.64867 53.4287 3.36201 55.034C3.13267 56.582 3.01801 57.786 3.01801 58.646C3.01801 58.7607 3.01801 58.9327 3.01801 59.162C3.01801 59.3913 3.07534 59.5633 3.19001 59.678ZM16.176 33.792C16.2907 33.7347 16.52 33.276 16.864 32.416C17.2653 31.556 17.724 30.4953 18.24 29.234C18.756 27.9727 19.3007 26.6253 19.874 25.192C20.4473 23.7013 20.9633 22.2967 21.422 20.978C21.938 19.6593 22.368 18.5127 22.712 17.538C23.1133 16.506 23.3427 15.8467 23.4 15.56C21.2213 20.3187 19.1573 25.106 17.208 29.922C15.2587 34.6807 13.5387 39.5827 12.048 44.628C11.7613 44.8573 11.618 45.144 11.618 45.488C11.618 45.7747 11.5033 45.9753 11.274 46.09C11.274 47.0073 11.1593 47.896 10.93 48.756C10.7007 49.616 10.4427 50.5047 10.156 51.422C9.92668 52.282 9.66868 53.142 9.38201 54.002C9.15267 54.862 9.00934 55.7507 8.95201 56.668L9.21001 56.754C9.26734 56.41 9.43934 55.6073 9.72601 54.346C10.0127 53.0273 10.328 51.6513 10.672 50.218C11.0733 48.7273 11.446 47.38 11.79 46.176C12.134 44.9147 12.392 44.1693 12.564 43.94L12.65 42.994C14.1407 39.9553 15.316 36.888 16.176 33.792ZM18.584 18.14C18.1253 19.6307 17.552 21.0927 16.864 22.526C16.2333 23.9593 15.6887 25.4213 15.23 26.912L15.316 27.256C15.9467 25.0773 16.8353 23.0133 17.982 21.064C19.1287 19.0573 20.046 16.9647 20.734 14.786H20.562L20.304 15.302L19.874 15.56C19.7593 16.592 19.3293 17.452 18.584 18.14ZM12.736 50.046C12.736 51.1353 12.5067 52.3393 12.048 53.658C11.5893 54.9193 11.1307 56.0373 10.672 57.012C10.9587 55.7507 11.2167 54.518 11.446 53.314C11.7327 52.0527 12.134 50.8487 12.65 49.702C12.65 49.7593 12.65 49.8167 12.65 49.874C12.7073 49.9313 12.736 49.9887 12.736 50.046ZM15.918 15.732C15.6887 16.076 15.3447 16.6493 14.886 17.452C14.4273 18.1973 14.198 18.7707 14.198 19.172V19.258C14.542 18.6273 14.8573 18.1113 15.144 17.71C15.2587 17.366 15.402 17.0507 15.574 16.764C15.746 16.42 15.8607 16.076 15.918 15.732ZM21.25 7.992C21.4793 7.87733 21.68 7.76266 21.852 7.648C22.024 7.476 22.2247 7.33266 22.454 7.218L23.4 6.014C22.7693 6.358 22.1673 6.788 21.594 7.304L21.25 7.992ZM8.95201 43.94C9.12401 43.768 9.23867 43.4813 9.29601 43.08C9.41068 42.6787 9.52534 42.3347 9.64001 42.048C9.52534 42.3347 9.38201 42.65 9.21001 42.994C9.09534 43.2807 9.00934 43.596 8.95201 43.94ZM9.81201 41.102C9.92668 41.102 10.07 40.8153 10.242 40.242C10.414 39.6113 10.5287 39.21 10.586 39.038L9.81201 41.102ZM6.54401 54.346C6.54401 54.4607 6.54401 54.5467 6.54401 54.604C6.60134 54.6613 6.63001 54.7473 6.63001 54.862L6.88801 52.97L6.80201 53.056L6.54401 54.346ZM8.95201 57.7L8.86601 57.184L8.52201 57.872L8.60801 58.13L8.95201 57.7ZM8.86601 44.886C8.69401 44.9433 8.57934 45.1153 8.52201 45.402C8.52201 45.6313 8.52201 45.8033 8.52201 45.918L8.86601 44.886ZM25.292 14.098L25.378 14.27L25.722 13.496H25.55L25.292 14.098ZM17.896 19.086L18.068 19.43L18.24 19L18.154 18.742L17.896 19.086ZM3.62001 61.14L3.36201 61.054L3.27601 61.398L3.53401 61.484L3.62001 61.14ZM14.026 29.406V29.664L14.456 29.406L14.198 29.234L14.026 29.406ZM10.672 57.012L10.414 58.216L10.242 58.302L10.672 57.012ZM3.79201 58.904L3.62001 58.818L3.36201 59.076L3.53401 59.248L3.79201 58.904ZM25.722 13.066H25.894L26.324 12.55L25.98 12.722L25.722 13.066ZM6.11401 38.35C6.11401 38.4073 6.11401 38.4647 6.11401 38.522C6.17134 38.5793 6.20001 38.6367 6.20001 38.694L6.37201 38.35L6.11401 38.092V38.35ZM13.252 38.522C13.3667 38.522 13.4527 38.4647 13.51 38.35C13.5673 38.2353 13.6247 38.1207 13.682 38.006C13.5673 38.006 13.4813 38.0633 13.424 38.178C13.424 38.2927 13.3667 38.4073 13.252 38.522ZM13.166 21.322L13.338 21.236L13.51 20.72L13.338 20.806L13.166 21.322ZM9.38201 29.148L9.64001 29.406L9.72601 29.234L9.64001 28.976L9.38201 29.148ZM7.83401 46.778L7.74801 46.434L7.57601 46.778L7.66201 46.95L7.83401 46.778ZM12.306 32.932L12.048 33.104L12.134 33.276H12.306V32.932ZM14.628 28.46L15.058 27.686L14.714 28.03L14.628 28.46ZM12.736 22.182L13.166 21.666L12.736 21.924V22.182ZM3.36201 60.71V60.538L3.19001 60.28L3.10401 60.538L3.36201 60.71ZM8.86601 41.962H8.95201L9.21001 41.188L9.12401 41.274L8.86601 41.962ZM6.80201 63.462H6.37201L6.28601 63.548L6.45801 63.634L6.80201 63.462ZM12.994 32.674L12.736 32.932H12.994L13.08 32.76L12.994 32.674ZM13.768 30.524L13.94 30.18V30.094L13.682 30.352L13.768 30.524ZM16.606 22.526L16.778 22.354L16.692 22.096C16.692 22.1533 16.6633 22.2107 16.606 22.268C16.606 22.268 16.606 22.2967 16.606 22.354V22.526ZM5.94201 56.324L5.77001 56.238L5.68401 56.324L5.77001 56.496L5.94201 56.324ZM8.26401 44.628L8.17801 44.542L8.00601 44.886H8.09201L8.26401 44.628ZM17.294 20.548V20.72L17.552 20.376V20.29L17.294 20.548ZM5.34001 41.36L5.25401 41.79L5.34001 42.048V41.36ZM10.758 38.178C10.758 38.2353 10.7293 38.2927 10.672 38.35C10.6147 38.4073 10.586 38.4647 10.586 38.522L10.758 38.436V38.178ZM3.36201 50.82L3.53401 50.992L3.44801 50.648L3.36201 50.82ZM8.26401 46.606L8.17801 46.864L8.26401 47.036V46.606ZM4.39401 44.972C4.39401 45.2013 4.42267 45.3447 4.48001 45.402L4.39401 44.972ZM6.02801 54.26L6.11401 54.088L5.94201 54.346L6.02801 54.432V54.26ZM7.92001 48.498L7.83401 48.412L7.92001 48.756V48.498ZM49.538 5.154C51.43 5.154 53.236 5.64133 54.956 6.616C56.676 7.53333 58.1666 8.766 59.428 10.314C60.7466 11.8047 61.7786 13.496 62.524 15.388C63.3266 17.2227 63.728 19.0287 63.728 20.806C63.728 21.2647 63.6706 21.752 63.556 22.268C63.4413 22.7267 63.384 23.214 63.384 23.73C63.384 23.7873 63.384 23.8447 63.384 23.902C63.4413 23.9593 63.47 24.0453 63.47 24.16L63.298 24.59L62.954 25.192L63.126 25.278C63.0113 25.5073 62.8966 25.7367 62.782 25.966C62.6673 26.1953 62.61 26.4533 62.61 26.74L62.696 27.084L61.664 27.256L62.524 27.858C62.2946 28.374 62.0366 28.9473 61.75 29.578C61.4633 30.2087 61.0906 30.7247 60.632 31.126L60.718 31.384L60.374 31.728C60.6033 31.04 60.8326 30.4093 61.062 29.836C61.2913 29.2627 61.6353 28.6607 62.094 28.03V27.686C61.5206 28.374 60.9473 29.1193 60.374 29.922C59.858 30.7247 59.3706 31.5273 58.912 32.33L59.084 33.018L59.428 33.362C59.3133 33.5913 59.1413 33.8207 58.912 34.05C58.74 34.2793 58.5393 34.4513 58.31 34.566C58.5393 34.222 58.654 33.9067 58.654 33.62C58.654 33.448 58.5966 33.19 58.482 32.846C58.3673 32.9607 58.1953 33.1327 57.966 33.362C57.7366 33.534 57.622 33.6773 57.622 33.792V33.878L57.966 33.706L58.224 33.878C57.9946 34.05 57.364 34.566 56.332 35.426C55.3573 36.286 54.1533 37.318 52.72 38.522C51.344 39.726 49.8533 41.016 48.248 42.392C46.6426 43.768 45.152 45.058 43.776 46.262C42.4573 47.4087 41.3393 48.3833 40.422 49.186C39.562 49.9313 39.132 50.304 39.132 50.304C39.4186 50.2467 39.8773 50.0173 40.508 49.616C41.1386 49.1573 41.8553 48.6127 42.658 47.982C43.4606 47.294 44.292 46.5773 45.152 45.832C46.0693 45.0867 46.9293 44.3987 47.732 43.768C48.592 43.08 49.366 42.478 50.054 41.962C50.742 41.446 51.258 41.1307 51.602 41.016C51.774 40.844 52.032 40.586 52.376 40.242C52.7773 39.898 53.1786 39.554 53.58 39.21C53.9813 38.8087 54.3253 38.436 54.612 38.092C54.956 37.748 55.1566 37.49 55.214 37.318C55.4433 37.146 55.644 36.9167 55.816 36.63C56.0453 36.286 56.3033 36.114 56.59 36.114C56.8193 35.8273 56.9626 35.512 57.02 35.168H57.192C57.192 35.3973 57.3066 35.426 57.536 35.254C57.8226 35.082 57.9946 34.9387 58.052 34.824L58.138 34.91C58.0806 35.1967 57.6506 35.7987 56.848 36.716C56.0453 37.576 55.1566 38.4933 54.182 39.468C53.2073 40.3853 52.2613 41.2167 51.344 41.962C50.4266 42.7073 49.8533 43.08 49.624 43.08C49.5666 43.08 49.5093 43.08 49.452 43.08C49.452 43.0227 49.4233 42.994 49.366 42.994L49.28 42.908L49.366 43.596C48.334 44.5707 47.216 45.4593 46.012 46.262C44.808 47.0073 43.5753 47.7813 42.314 48.584C41.11 49.3293 39.906 50.1033 38.702 50.906C37.5553 51.7087 36.4946 52.626 35.52 53.658L34.832 54.002L34.488 53.658L34.058 53.83C34.1153 54.0593 34.3446 54.2027 34.746 54.26C35.1473 54.3173 35.5773 54.3747 36.036 54.432C36.4946 54.432 36.9533 54.4607 37.412 54.518C37.8706 54.518 38.2146 54.5753 38.444 54.69C39.7626 54.8047 41.024 54.8907 42.228 54.948C43.4893 55.0053 44.7793 55.034 46.098 55.034C47.302 55.034 48.3053 55.0053 49.108 54.948C49.9106 54.8907 50.6273 54.7473 51.258 54.518C51.946 54.2313 52.6053 53.8587 53.236 53.4C53.924 52.9413 54.7266 52.282 55.644 51.422L56.246 51.25C55.902 51.7087 55.6726 52.0813 55.558 52.368L55.214 52.712L54.956 53.486V53.572C55.1853 53.5147 55.4146 53.3713 55.644 53.142C55.9306 52.9127 56.1313 52.712 56.246 52.54C56.59 52.4253 56.848 52.2247 57.02 51.938L56.934 52.884L57.192 53.228L57.45 52.97L57.536 53.916L57.02 55.722L56.59 55.55H56.504C56.4466 55.894 56.3893 56.2093 56.332 56.496C56.332 56.7827 56.246 57.0693 56.074 57.356C55.9593 57.1267 55.8446 57.012 55.73 57.012C55.6153 57.012 55.558 57.098 55.558 57.27L55.988 57.786C55.816 58.0153 55.4146 58.388 54.784 58.904C54.2106 59.42 53.58 59.9647 52.892 60.538C52.204 61.1113 51.5446 61.6273 50.914 62.086C50.2833 62.5447 49.8246 62.8313 49.538 62.946C49.3086 63.0607 48.9073 63.2613 48.334 63.548C47.7606 63.8347 47.4166 64.064 47.302 64.236C47.7033 64.236 48.1046 64.1213 48.506 63.892C48.9646 63.72 49.3946 63.5193 49.796 63.29C50.1973 63.118 50.5413 62.9173 50.828 62.688C51.172 62.516 51.43 62.43 51.602 62.43H51.688C51.6306 63.0033 51.258 63.4333 50.57 63.72C49.882 64.064 49.0793 64.2933 48.162 64.408C47.2446 64.58 46.3273 64.666 45.41 64.666C44.55 64.7233 43.9193 64.752 43.518 64.752C42.8873 64.752 42.3426 64.666 41.884 64.494C41.4253 64.3793 40.9093 64.1787 40.336 63.892L40.078 64.064H39.562L39.648 63.634C39.7053 63.5193 39.734 63.4047 39.734 63.29V63.204C39.5046 63.204 39.3326 63.29 39.218 63.462C39.1033 63.6913 38.9886 63.892 38.874 64.064L38.616 63.548L38.1 63.376C37.584 63.4907 37.068 63.5193 36.552 63.462C36.036 63.4047 35.52 63.376 35.004 63.376V62.688L34.574 63.118H34.058C33.6566 62.946 33.2553 62.8313 32.854 62.774C32.4526 62.774 32.0226 62.774 31.564 62.774C31.1626 62.774 30.7613 62.7453 30.36 62.688C29.9586 62.6307 29.586 62.4873 29.242 62.258L28.898 62.516L28.468 62.344H28.21C27.866 62.516 27.436 62.602 26.92 62.602C25.716 62.602 24.512 62.7167 23.308 62.946C22.104 63.2327 20.9 63.5193 19.696 63.806L19.266 63.204H18.664C18.5493 62.86 18.406 62.688 18.234 62.688C18.1193 62.688 18.0333 62.688 17.976 62.688C17.976 62.7453 17.9186 62.774 17.804 62.774L17.46 62.602C17.3453 62.1433 17.288 61.742 17.288 61.398C17.288 60.4807 17.6606 59.6493 18.406 58.904C19.2086 58.1013 19.8393 57.3273 20.298 56.582C21.4446 54.8047 22.6486 53.0847 23.91 51.422C25.1713 49.702 26.4613 48.0393 27.78 46.434C29.4426 44.4273 31.2486 42.564 33.198 40.844C35.2046 39.0667 37.1253 37.2893 38.96 35.512C39.5906 34.8813 40.3073 34.2507 41.11 33.62C41.9126 32.932 42.5433 32.2153 43.002 31.47L43.948 31.04C43.948 30.9827 44.0913 30.8107 44.378 30.524C44.6646 30.2373 44.9513 29.9507 45.238 29.664C45.582 29.32 45.8973 29.0047 46.184 28.718C46.528 28.4313 46.7573 28.2307 46.872 28.116C47.1013 28.2307 47.302 28.3453 47.474 28.46C47.646 28.5173 47.8466 28.5173 48.076 28.46L47.646 28.116C47.302 28.0013 47.1013 27.858 47.044 27.686L47.302 27.514H47.646L48.162 27.256C48.2766 26.6827 48.334 26.2527 48.334 25.966C48.506 25.7367 48.7353 25.3927 49.022 24.934C49.366 24.4753 49.7386 24.0167 50.14 23.558C50.5413 23.042 50.914 22.5833 51.258 22.182C51.602 21.7807 51.86 21.5227 52.032 21.408L52.634 20.032C52.8633 19.8027 53.0926 19.4587 53.322 19C53.5513 18.5413 53.752 18.054 53.924 17.538C54.096 16.9647 54.2393 16.42 54.354 15.904C54.4686 15.388 54.526 14.958 54.526 14.614C54.526 14.098 54.2966 13.7253 53.838 13.496C53.3793 13.2093 52.8346 13.0087 52.204 12.894C51.6306 12.7793 51.0286 12.722 50.398 12.722C49.7673 12.722 49.28 12.722 48.936 12.722C47.8466 12.722 46.5853 12.9513 45.152 13.41C43.7186 13.8113 42.5146 14.2413 41.54 14.7C40.3933 15.2733 39.476 15.9327 38.788 16.678C38.1 17.4233 37.3546 18.2547 36.552 19.172L35.864 19.86C35.864 19.8027 35.864 19.774 35.864 19.774C35.9213 19.7167 35.95 19.6307 35.95 19.516C35.434 20.6627 35.004 21.6947 34.66 22.612C34.316 23.5293 34.0293 23.988 33.8 23.988C33.456 23.7013 33.112 23.5007 32.768 23.386C32.424 23.2713 32.1086 23.128 31.822 22.956C31.5353 22.784 31.306 22.4973 31.134 22.096C30.962 21.6373 30.876 20.9493 30.876 20.032C30.876 17.796 31.478 15.7607 32.682 13.926C33.886 12.0913 35.4053 10.5433 37.24 9.282C39.0746 7.96333 41.0813 6.96 43.26 6.272C45.4386 5.52667 47.5313 5.154 49.538 5.154ZM46.27 33.534C46.7286 33.6487 46.958 33.4767 46.958 33.018C46.958 32.7887 46.8433 32.674 46.614 32.674L46.7 32.502L47.13 32.588L47.474 32.502C47.4166 32.2153 47.3306 32.0433 47.216 31.986C47.1586 31.8713 47.0153 31.7567 46.786 31.642L47.56 31.384L47.474 31.642L47.904 31.47L48.076 30.954L47.99 30.868L48.592 29.75C48.764 29.8073 48.85 30.008 48.85 30.352C48.85 30.4093 48.8213 30.4667 48.764 30.524C48.764 30.5813 48.764 30.6387 48.764 30.696L48.936 31.04C49.2226 30.8107 49.4806 30.5527 49.71 30.266L49.28 29.664L48.936 29.492C49.108 29.2627 49.28 29.1193 49.452 29.062C49.6813 28.9473 49.8533 28.7467 49.968 28.46L49.882 27.858H49.796C49.796 28.0873 49.6813 28.202 49.452 28.202C49.3373 28.202 49.2513 28.1733 49.194 28.116H49.022L48.936 28.718L48.592 28.89L48.764 28.46L48.678 28.202L48.506 28.46L48.592 28.89L48.162 29.062H47.732C47.56 29.5207 47.3306 29.922 47.044 30.266C46.8146 30.61 46.5853 30.9827 46.356 31.384L46.184 31.47L45.066 32.76L45.238 32.846V32.674L45.582 32.502L45.926 32.674C43.4033 35.082 40.938 37.5473 38.53 40.07C36.122 42.5353 33.4846 44.7713 30.618 46.778C30.3886 47.1793 30.016 47.6093 29.5 48.068C29.0413 48.5267 28.5826 48.842 28.124 49.014L27.866 49.53L27.006 50.218C26.9486 50.6193 26.748 50.9347 26.404 51.164C26.1173 51.3933 25.888 51.68 25.716 52.024L24.684 52.884L24.426 53.4C24.082 53.572 23.824 53.7727 23.652 54.002C23.48 54.2313 23.2506 54.4607 22.964 54.69L22.19 56.238L22.362 56.582L23.222 56.324C23.4513 55.9227 24.1106 55.1487 25.2 54.002C26.3466 52.798 27.6653 51.422 29.156 49.874C30.6466 48.2687 32.252 46.606 33.972 44.886C35.692 43.1087 37.2973 41.4747 38.788 39.984C40.336 38.4933 41.6546 37.2607 42.744 36.286C43.8333 35.3113 44.4926 34.7667 44.722 34.652L45.066 34.308L45.152 33.878L45.754 33.362C45.8686 33.4767 46.0406 33.534 46.27 33.534L46.098 33.104L46.27 33.018L46.614 33.19L46.27 33.534ZM33.714 14.7C34.8606 13.7253 36.036 12.808 37.24 11.948C38.5013 11.088 39.6766 10.142 40.766 9.11C39.906 9.56866 39.0746 10.0847 38.272 10.658C37.4693 11.174 36.6093 11.6327 35.692 12.034C35.52 12.206 35.348 12.378 35.176 12.55C35.004 12.722 34.8606 12.9227 34.746 13.152L33.714 14.7ZM49.28 35.34C49.108 35.4547 48.592 35.8847 47.732 36.63C46.9293 37.318 46.0406 38.1207 45.066 39.038C44.0913 39.898 43.1453 40.7293 42.228 41.532C41.368 42.3347 40.766 42.8793 40.422 43.166C42.0846 42.0193 43.6326 40.7867 45.066 39.468C46.4993 38.1493 47.904 36.7733 49.28 35.34ZM41.626 46.262C43.6326 44.714 45.6106 43.1947 47.56 41.704C49.5093 40.156 51.344 38.4647 53.064 36.63C52.892 36.6873 52.548 36.9167 52.032 37.318C51.5733 37.7193 51.086 38.178 50.57 38.694C50.054 39.1527 49.538 39.6113 49.022 40.07C48.5633 40.5287 48.2193 40.844 47.99 41.016C46.958 41.9333 45.8686 42.7933 44.722 43.596C43.6326 44.3987 42.6006 45.2873 41.626 46.262ZM47.99 57.098C48.1046 57.098 48.1906 57.1267 48.248 57.184C48.3053 57.184 48.3913 57.184 48.506 57.184C49.022 57.184 49.5093 57.098 49.968 56.926C50.484 56.6967 50.9713 56.5247 51.43 56.41L52.29 55.378L52.634 55.55C52.7486 55.55 52.8346 55.4353 52.892 55.206C52.9493 54.9193 53.0066 54.7187 53.064 54.604L51.688 55.55V55.636C51.4586 55.7507 51.2293 55.8367 51 55.894C50.7706 55.894 50.5126 55.9227 50.226 55.98C49.9393 56.324 49.5666 56.5247 49.108 56.582C48.7066 56.6393 48.334 56.8113 47.99 57.098ZM40.594 14.528C39.734 14.528 38.96 14.958 38.272 15.818C37.584 16.6207 36.9533 17.5667 36.38 18.656C36.896 17.796 37.5553 17.108 38.358 16.592C39.218 16.0187 39.9633 15.3307 40.594 14.528ZM43.862 34.05C42.7153 35.0247 41.5686 35.9993 40.422 36.974C39.3326 37.9487 38.3006 39.0093 37.326 40.156C37.5553 40.0413 37.9566 39.726 38.53 39.21C39.1606 38.6367 39.82 38.006 40.508 37.318C41.196 36.63 41.8553 35.9993 42.486 35.426C43.1166 34.7953 43.5753 34.3367 43.862 34.05ZM49.882 33.964L50.57 33.62C50.3406 33.7347 50.14 33.878 49.968 34.05C49.796 34.1647 49.5953 34.2507 49.366 34.308L48.936 34.91C49.3946 34.7953 49.9106 34.6233 50.484 34.394C51.0573 34.1647 51.344 33.7633 51.344 33.19V33.104L50.828 33.018L50.312 32.674V33.19L49.882 33.964ZM36.724 16.764C36.8386 16.764 36.982 16.678 37.154 16.506C37.3833 16.2767 37.6126 16.0473 37.842 15.818C38.0713 15.5313 38.272 15.2733 38.444 15.044C38.6733 14.8147 38.8166 14.6427 38.874 14.528C38.6446 14.7 38.2433 15.0727 37.67 15.646C37.0966 16.162 36.7813 16.5347 36.724 16.764ZM51.86 32.76H52.118C52.4046 32.5307 52.548 32.33 52.548 32.158C52.6053 31.9287 52.6913 31.6707 52.806 31.384L52.204 31.47L51.86 32.76ZM49.968 58.99C50.484 58.8753 50.9713 58.7033 51.43 58.474C51.946 58.1873 52.4333 57.9007 52.892 57.614L52.462 57.528C52.118 57.872 51.688 58.13 51.172 58.302C50.7133 58.4167 50.312 58.646 49.968 58.99ZM20.642 59.334L20.556 59.248C20.384 59.248 20.0973 59.3913 19.696 59.678C19.2946 59.9647 18.9793 60.1653 18.75 60.28L18.578 60.538L20.556 59.592L20.642 59.334ZM48.85 62L48.936 62.172C49.3946 61.9427 49.8533 61.7133 50.312 61.484C50.7706 61.2547 51.2006 60.968 51.602 60.624L48.85 62ZM52.806 31.04H52.892L54.526 30.266L54.01 30.094C53.6086 30.3233 53.322 30.5813 53.15 30.868L52.806 31.04ZM60.03 32.33L59.772 32.674L59.428 32.846V32.416C59.428 32.3013 59.4853 32.2153 59.6 32.158C59.7146 32.0433 59.8293 31.9573 59.944 31.9L60.03 32.33ZM54.096 29.836C54.268 29.836 54.4113 29.8073 54.526 29.75C54.698 29.6353 54.87 29.5207 55.042 29.406C54.9273 29.406 54.8413 29.406 54.784 29.406C54.784 29.3487 54.7266 29.32 54.612 29.32C54.2106 29.32 53.9813 29.4347 53.924 29.664L54.096 29.836ZM42.314 63.548L42.142 63.72L42.486 64.236L43.088 64.408H43.174L42.314 63.548ZM35.176 15.818C35.864 15.3593 36.4086 14.7573 36.81 14.012L35.176 15.818ZM37.068 51.594C37.3546 51.594 37.67 51.4793 38.014 51.25C38.358 51.0207 38.616 50.7913 38.788 50.562L37.068 51.594ZM53.752 56.668C53.6373 56.668 53.494 56.754 53.322 56.926C53.15 57.0407 53.064 57.1553 53.064 57.27V57.356C53.1786 57.2413 53.3506 57.1553 53.58 57.098C53.8093 56.9833 54.01 56.8973 54.182 56.84L53.752 56.668ZM53.752 58.99L53.494 58.56L53.236 58.99L53.408 59.42L53.752 58.99ZM43.174 63.634C43.174 63.8633 43.3173 63.978 43.604 63.978L43.862 63.892L43.69 63.634L43.26 63.462L43.174 63.634ZM41.798 41.016C41.3966 41.2453 41.0526 41.532 40.766 41.876C40.5366 42.1627 40.2786 42.4493 39.992 42.736L41.798 41.016ZM53.58 60.28C53.6946 60.1653 53.838 60.0793 54.01 60.022C54.2393 59.9073 54.44 59.85 54.612 59.85L54.354 60.108C54.2966 60.108 54.2106 60.1367 54.096 60.194C53.9813 60.2513 53.8953 60.28 53.838 60.28H53.58ZM54.354 35.77L54.01 35.598L53.666 35.856L53.924 36.028H54.096L54.354 35.77ZM53.494 54.518L53.666 54.604L53.924 54.26V53.916L53.666 54.088L53.494 54.518ZM32.596 52.712L32.252 52.884C32.1946 52.9987 32.166 53.0847 32.166 53.142C32.166 53.1993 32.1373 53.2567 32.08 53.314L32.252 53.228L32.682 52.884L32.596 52.712ZM54.87 55.894C54.698 55.894 54.4686 56.0373 54.182 56.324L54.354 56.41L54.87 55.98V55.894ZM30.704 51.508L30.274 51.766L30.36 51.938L30.79 51.766L30.704 51.508ZM30.36 50.992L30.704 51.164L30.876 50.992L30.704 50.734L30.36 50.992ZM36.552 51.938L36.208 52.196L36.294 52.368L36.724 52.024L36.552 51.938ZM50.656 28.46V28.546C50.656 28.718 50.742 28.804 50.914 28.804V28.46H50.656ZM49.968 38.694C49.968 38.6367 50.0253 38.4933 50.14 38.264L49.796 38.436L49.71 38.608L49.968 38.694ZM41.626 63.548L41.454 63.72V63.978H41.626L41.712 63.634L41.626 63.548ZM46.012 29.234L46.27 29.492V29.234L46.098 28.89L46.012 29.234ZM50.14 28.976L49.796 29.664L50.226 29.234L50.14 28.976ZM49.366 58.818L49.624 58.99L49.71 58.818L49.452 58.56L49.366 58.818ZM47.732 27.084L47.646 26.912L47.904 26.654L47.99 26.912L47.732 27.084ZM29.672 51.594L29.5 51.422L29.414 51.594L29.672 51.938V51.594ZM51.516 32.33C51.344 32.3873 51.2293 32.502 51.172 32.674H51.344L51.602 32.502L51.516 32.33ZM48.506 39.726L48.85 39.64L49.28 39.124L48.506 39.726ZM44.12 57.786L44.292 57.958L44.464 57.786L44.206 57.614L44.12 57.786ZM63.04 26.31L62.868 26.568L62.696 26.482L62.868 26.224L63.04 26.31ZM55.988 32.674H56.246L56.074 32.416L55.902 32.502L55.988 32.674ZM47.216 30.266L47.388 30.008L47.474 30.18L47.302 30.438L47.216 30.266ZM49.71 34.738C49.538 34.8527 49.3946 34.996 49.28 35.168H49.366L49.71 34.738ZM56.074 31.986C56.074 32.1007 56.16 32.158 56.332 32.158L56.504 31.986H56.074ZM33.8 48.67L33.628 48.498L33.456 48.584L33.628 48.756L33.8 48.67ZM48.936 26.998L48.85 27.17L49.022 27.428V27.084L48.936 26.998ZM28.898 52.798L28.554 53.228L28.812 53.142L28.898 52.798ZM56.332 33.018L55.988 33.19H56.246L56.504 33.018H56.332ZM23.738 54.518L23.652 54.69L23.48 54.518L23.566 54.432L23.738 54.518ZM31.564 53.916L31.478 53.744C31.478 53.8013 31.4493 53.8587 31.392 53.916C31.392 53.916 31.392 53.9447 31.392 54.002V54.174L31.564 53.916ZM59.514 29.32L59.428 29.148L59.342 29.234L59.514 29.492V29.32ZM47.388 40.93V41.016L47.646 40.586L47.388 40.93ZM34.746 13.152L35.004 12.98L34.746 13.152ZM82.2381 69.998C81.3208 69.998 80.4321 69.8547 79.5721 69.568C78.7695 69.2813 77.9381 69.0233 77.0781 68.794C74.6128 68.106 72.4055 67.074 70.4561 65.698C68.5641 64.3793 66.9588 62.774 65.6401 60.882C64.3788 58.99 63.4041 56.8973 62.7161 54.604C62.0855 52.3107 61.7701 49.9027 61.7701 47.38C61.7701 44.3413 62.2288 41.0733 63.1461 37.576C64.1208 34.0213 65.4681 30.524 67.1881 27.084C68.9081 23.5867 70.9435 20.2327 73.2941 17.022C75.6448 13.8113 78.2248 10.9733 81.0341 8.508C83.9008 5.98533 86.9395 4.00733 90.1501 2.574C93.3608 1.08333 96.6575 0.337999 100.04 0.337999C100.9 0.337999 101.903 0.423998 103.05 0.595996C104.197 0.710665 105.315 0.939998 106.404 1.284C107.493 1.628 108.497 2.08666 109.414 2.66C110.331 3.23333 111.019 3.95 111.478 4.81C111.65 4.81 111.765 4.896 111.822 5.06799C111.937 5.18266 112.051 5.29733 112.166 5.412L113.198 6.186C113.657 7.046 114.144 7.84866 114.66 8.594C115.176 9.33933 115.434 10.1993 115.434 11.174C115.434 11.2887 115.377 11.432 115.262 11.604C115.205 11.7187 115.205 11.8333 115.262 11.948L115.692 12.378V12.55C115.52 14.27 115.176 15.8753 114.66 17.366C114.144 18.7993 113.456 20.1467 112.596 21.408C111.793 22.6693 110.847 23.8733 109.758 25.02C108.669 26.1093 107.493 27.1987 106.232 28.288C106.06 28.46 105.917 28.6033 105.802 28.718C105.745 28.7753 105.659 28.9187 105.544 29.148C105.2 29.664 104.598 30.0367 103.738 30.266C102.878 30.438 102.133 30.524 101.502 30.524C100.699 30.524 99.8108 30.3807 98.8361 30.094C97.9188 29.75 97.0301 29.32 96.1701 28.804C95.3675 28.2307 94.6795 27.5713 94.1061 26.826C93.5328 26.0233 93.2461 25.192 93.2461 24.332C93.2461 24.0453 93.3608 23.7587 93.5901 23.472C93.8195 23.128 94.1061 22.956 94.4501 22.956C95.1381 22.956 95.7975 23.0993 96.4281 23.386C97.1161 23.6727 97.8041 23.816 98.4921 23.816C99.7535 23.816 101.072 23.4147 102.448 22.612C103.881 21.752 105.171 20.72 106.318 19.516C107.522 18.2547 108.497 16.9073 109.242 15.474C110.045 13.9833 110.446 12.6073 110.446 11.346C110.446 10.7153 110.303 10.2567 110.016 9.97C109.787 9.626 109.471 9.39667 109.07 9.282C108.669 9.11 108.21 9.024 107.694 9.024C107.235 8.96666 106.777 8.90933 106.318 8.852L106.146 8.594L105.974 9.54C105.573 9.59733 105.143 9.712 104.684 9.884C104.283 10.056 103.91 10.1993 103.566 10.314C102.935 10.5433 102.161 10.916 101.244 11.432C100.327 11.948 99.3808 12.5213 98.4061 13.152C97.4888 13.7253 96.6001 14.3273 95.7401 14.958C94.9375 15.5887 94.2781 16.1333 93.7621 16.592C91.4688 18.656 89.3188 21.236 87.3121 24.332C85.3628 27.428 83.6428 30.7247 82.1521 34.222C80.6615 37.7193 79.4861 41.274 78.6261 44.886C77.7661 48.4407 77.3361 51.7373 77.3361 54.776C77.3361 56.84 77.7088 58.6173 78.4541 60.108C79.2568 61.5413 80.8335 62.258 83.1841 62.258C85.5921 62.258 87.5701 61.742 89.1181 60.71C90.6661 59.678 92.0421 58.4453 93.2461 57.012C94.5075 55.5787 95.7115 54.088 96.8581 52.54C98.0048 50.992 99.4095 49.7307 101.072 48.756C99.6961 50.82 98.1768 52.798 96.5141 54.69C94.9088 56.5247 93.3608 58.4453 91.8701 60.452C92.5008 59.8787 93.3035 59.0187 94.2781 57.872C95.2528 56.7253 96.2275 55.5787 97.2021 54.432C98.2341 53.228 99.1801 52.1387 100.04 51.164C100.957 50.1893 101.674 49.5587 102.19 49.272L101.33 51.25C101.674 50.8487 102.161 50.476 102.792 50.132L103.05 50.304C102.935 50.9347 102.649 51.6513 102.19 52.454C101.731 53.1993 101.301 53.83 100.9 54.346L103.394 51.25C102.133 53.314 100.785 55.3207 99.3521 57.27C97.9188 59.162 96.4568 61.0827 94.9661 63.032C95.9981 62 96.9441 60.9393 97.8041 59.85C98.7215 58.7607 99.6388 57.6427 100.556 56.496C99.5815 57.9293 98.4348 59.4487 97.1161 61.054C95.7975 62.602 94.3355 64.0353 92.7301 65.354C91.1248 66.73 89.4335 67.848 87.6561 68.708C85.8788 69.568 84.0728 69.998 82.2381 69.998ZM93.0741 4.982C92.4435 4.982 91.3541 5.46933 89.8061 6.444C88.2581 7.36133 86.6815 8.422 85.0761 9.626C83.4708 10.83 82.0088 12.0627 80.6901 13.324C79.4288 14.528 78.7408 15.4453 78.6261 16.076C78.9128 15.8467 79.1708 15.646 79.4001 15.474C79.6868 15.302 80.0021 15.1587 80.3461 15.044L80.4321 14.958C80.6615 14.3273 81.2921 13.582 82.3241 12.722C83.3561 11.862 84.5028 10.9733 85.7641 10.056C87.0828 9.13867 88.3441 8.30733 89.5481 7.562C90.8095 6.75933 91.7555 6.12866 92.3861 5.67C92.4435 5.61266 92.5581 5.52666 92.7301 5.412C92.9595 5.29733 93.0741 5.18266 93.0741 5.06799V4.982ZM100.556 10.83C99.5815 11.346 98.4061 12.0053 97.0301 12.808C95.6541 13.6107 94.3068 14.4993 92.9881 15.474C91.6695 16.4487 90.4655 17.4807 89.3761 18.57C88.3441 19.6593 87.6561 20.7487 87.3121 21.838C87.7135 21.5513 88.0861 21.0927 88.4301 20.462C88.8315 20.1753 89.1755 19.9173 89.4621 19.688C89.7488 19.4013 90.0355 19.086 90.3221 18.742C90.4941 18.226 91.0388 17.624 91.9561 16.936C92.8735 16.1907 93.8768 15.4453 94.9661 14.7C96.0555 13.8973 97.1161 13.1807 98.1481 12.55C99.2375 11.862 100.04 11.2887 100.556 10.83ZM86.4521 19.774C87.9428 18.398 89.4908 17.0507 91.0961 15.732C92.7588 14.356 94.2781 12.9227 95.6541 11.432C95.3101 11.5467 94.6508 11.9767 93.6761 12.722C92.7015 13.4673 91.6695 14.3273 90.5801 15.302C89.5481 16.2193 88.6021 17.108 87.7421 17.968C86.9395 18.828 86.5095 19.43 86.4521 19.774ZM82.7541 17.796C83.0408 17.7387 83.5281 17.4233 84.2161 16.85C84.9041 16.2193 85.6495 15.5313 86.4521 14.786C87.2548 13.9833 88.0001 13.238 88.6881 12.55C89.4335 11.8047 89.9781 11.26 90.3221 10.916C90.1501 10.916 89.6628 11.26 88.8601 11.948C88.1148 12.5787 87.2835 13.2953 86.3661 14.098C85.5061 14.9007 84.7035 15.6747 83.9581 16.42C83.2701 17.108 82.8688 17.5667 82.7541 17.796ZM102.448 24.504C103.423 24.2747 104.254 23.8733 104.942 23.3C105.687 22.6693 106.461 22.1247 107.264 21.666V21.408C107.551 20.9493 107.837 20.4907 108.124 20.032C108.411 19.5733 108.611 19.086 108.726 18.57L108.124 19.688C107.149 20.4333 106.289 21.236 105.544 22.096C104.799 22.956 103.853 23.6727 102.706 24.246L102.448 24.504ZM111.392 23.902C111.335 24.4753 110.933 25.1347 110.188 25.88C109.443 26.568 108.841 27.0553 108.382 27.342C108.898 26.7687 109.357 26.1953 109.758 25.622C110.217 24.9913 110.761 24.418 111.392 23.902ZM106.404 27.256C107.149 26.6827 107.837 26.138 108.468 25.622C109.156 25.0487 109.758 24.3607 110.274 23.558C110.159 23.6153 109.901 23.816 109.5 24.16C109.156 24.504 108.755 24.8767 108.296 25.278C107.895 25.6793 107.493 26.0807 107.092 26.482C106.748 26.826 106.519 27.084 106.404 27.256ZM79.2281 14.098C80.0881 13.4673 80.9768 12.7507 81.8941 11.948C82.8115 11.1453 83.5855 10.314 84.2161 9.454L79.2281 14.098ZM109.242 21.666C108.267 22.2967 107.522 23.128 107.006 24.16C107.121 24.16 107.293 24.0453 107.522 23.816C107.809 23.5293 108.095 23.214 108.382 22.87C108.669 22.526 108.927 22.2107 109.156 21.924C109.385 21.58 109.529 21.3507 109.586 21.236L109.414 21.064L109.242 21.666ZM95.7401 61.054C96.1988 60.5953 96.6288 60.0793 97.0301 59.506C97.4888 58.8753 97.9475 58.2447 98.4061 57.614C97.9475 58.1873 97.4888 58.7607 97.0301 59.334C96.5715 59.85 96.1415 60.4233 95.7401 61.054ZM84.3881 26.826C84.5028 26.826 84.5888 26.74 84.6461 26.568C84.7035 26.3387 84.7608 26.1667 84.8181 26.052L84.5601 25.88C84.5601 25.9373 84.5315 26.0233 84.4741 26.138C84.4168 26.2527 84.3881 26.3387 84.3881 26.396V26.826ZM106.834 28.374L106.92 28.46L106.748 28.718L106.232 28.976V28.718L106.834 28.374ZM101.588 54.948C101.645 54.6613 101.731 54.432 101.846 54.26C102.018 54.0307 102.19 53.83 102.362 53.658L101.588 54.948ZM112.08 15.216L112.166 15.474H112.252L112.51 15.216L112.424 15.044H112.166L112.08 15.216ZM107.952 27.772C107.837 27.8867 107.694 28.03 107.522 28.202C107.407 28.3167 107.293 28.374 107.178 28.374L107.866 27.686L107.952 27.772ZM106.576 23.988L106.318 24.848L106.662 24.418L106.576 23.988ZM86.7101 22.956L86.5381 22.698L86.3661 23.042L86.4521 23.214L86.7101 22.956ZM86.1081 23.558L85.7641 23.73L85.9361 23.988L86.1081 23.816V23.558ZM100.298 52.454L100.384 52.712L100.642 52.454V52.282L100.298 52.454ZM100.9 55.98L100.986 55.636L101.244 55.378L101.158 55.722L100.9 55.98ZM111.994 17.624C111.937 17.6813 111.851 17.7387 111.736 17.796C111.679 17.796 111.65 17.8533 111.65 17.968H111.822L111.994 17.796V17.624ZM85.8501 20.978L85.7641 20.72L85.5921 20.978L85.6781 21.15L85.8501 20.978ZM95.9121 3.692L96.0841 3.95L96.1701 3.692L95.9981 3.52L95.9121 3.692ZM91.1821 60.796L91.2681 60.968L91.4401 60.71L91.3541 60.538L91.1821 60.796ZM84.3021 27.256L83.9581 27.342L83.8721 27.514L84.3021 27.342V27.256ZM88.2581 11.776L88.7741 11.346L88.1721 11.776H88.2581ZM78.8841 41.102H78.7981V41.532L78.8841 41.102Z" fill="white"/>
</svg>
